<?xml version="1.0" standalone="no"?>
<!DOCTYPE svg PUBLIC "-//W3C//DTD SVG 20010904//EN"
 "http://www.w3.org/TR/2001/REC-SVG-20010904/DTD/svg10.dtd">
<svg version="1.0" xmlns="http://www.w3.org/2000/svg"
 width="512.000000pt" height="512.000000pt" viewBox="0 0 512.000000 512.000000"
 preserveAspectRatio="xMidYMid meet">

<g transform="translate(0.000000,512.000000) scale(0.100000,-0.100000)"
fill="currentColor" stroke="none">
<path d="M1902 4845 c-76 -17 -188 -72 -262 -131 -107 -84 -195 -229 -225
-369 -22 -102 -22 -1187 0 -1290 19 -91 81 -215 144 -288 28 -32 58 -75 68
-95 9 -20 58 -123 109 -229 51 -105 103 -213 115 -240 12 -26 84 -176 161
-332 l139 -284 -27 -61 c-33 -73 -45 -216 -24 -294 42 -154 171 -295 306 -332
l44 -13 0 -182 c0 -221 -3 -215 116 -215 122 0 118 -8 124 216 l5 187 38 13
c96 33 199 128 249 229 40 81 51 136 46 237 -3 79 -9 104 -37 164 l-32 71 106
219 c59 120 169 345 245 499 75 154 145 298 155 320 11 22 47 71 82 109 75 81
137 199 158 301 22 103 22 1188 0 1290 -30 140 -121 288 -227 371 -76 59 -185
112 -265 129 -96 21 -1216 20 -1311 0z m1320 -287 c79 -37 148 -105 189 -185
l34 -67 3 -579 c2 -509 1 -586 -13 -635 -21 -70 -72 -151 -120 -188 -28 -22
-52 -61 -100 -159 -126 -261 -357 -733 -413 -843 -53 -105 -59 -113 -82 -108
-143 32 -221 31 -315 0 -32 -11 -50 -14 -52 -7 -2 6 -50 105 -107 219 -57 115
-113 229 -124 254 -11 25 -45 97 -76 160 l-56 115 485 3 c426 2 485 4 485 17
0 16 34 103 76 191 13 28 24 54 24 57 0 3 -246 8 -547 9 l-548 3 -58 27 c-115
54 -189 138 -222 251 -14 48 -15 129 -13 633 l3 579 29 60 c52 106 142 183
245 212 35 9 188 12 631 10 l585 -2 57 -27z m-580 -2984 c93 -31 157 -124 158
-227 0 -139 -101 -241 -240 -241 -139 0 -240 102 -240 241 1 170 161 283 322
227z"/>
<path d="M2981 4429 c-210 -64 -231 -353 -31 -442 192 -86 398 118 311 308
-47 105 -175 166 -280 134z"/>
<path d="M2511 3939 c-210 -64 -231 -353 -31 -442 192 -86 398 118 311 308
-47 105 -175 166 -280 134z"/>
<path d="M2031 3449 c-210 -64 -231 -353 -31 -442 192 -86 398 118 311 308
-47 105 -175 166 -280 134z"/>
</g>
</svg>
